<?xml version="1.0" encoding="UTF-8"?>
<svg version="1.1" xmlns="http://www.w3.org/2000/svg" width="1366" height="768">
<path d="M0 0 C12.1341346 9.47110888 15.56440268 28.27055925 20.171875 42.16015625 C21.7604478 46.90755257 23.35490863 51.65296536 24.94921875 56.3984375 C25.54777176 58.18415665 25.54777176 58.18415665 26.15841675 60.00595093 C28.77576938 67.79977912 31.44866018 75.57204896 34.17578125 83.328125 C34.52273544 84.31539078 34.86968964 85.30265656 35.22715759 86.31983948 C36.54706243 90.07034597 37.86914814 93.82003109 39.20065308 97.56643677 C40.10150542 100.10142336 40.99640065 102.63845067 41.890625 105.17578125 C42.15126236 105.90165939 42.41189972 106.62753754 42.68043518 107.37541199 C44.4378302 112.37899526 45.68567363 117.40061087 46.734375 122.59765625 C50.93699281 120.5877086 53.63028332 118.73422121 56.859375 115.41015625 C66.18224496 106.11503293 66.18224496 106.11503293 70.734375 104.59765625 C72.37915175 102.93718624 72.37915175 102.93718624 73.984375 100.91015625 C80.61030403 93.13554608 80.61030403 93.13554608 84.734375 90.59765625 C86.054375 90.59765625 87.374375 90.59765625 88.734375 90.59765625 C88.97027344 89.86289063 89.20617187 89.128125 89.44921875 88.37109375 C90.94813771 85.13634462 92.61134334 83.55095756 95.296875 81.22265625 C96.64072266 80.05476563 96.64072266 80.05476563 98.01171875 78.86328125 C101.13781038 76.26194245 104.32316639 73.75899895 107.5625 71.30078125 C110.5021542 68.99558479 113.25633399 66.50548813 116.0078125 63.98046875 C117.734375 62.59765625 117.734375 62.59765625 120.734375 61.59765625 C120.734375 60.93765625 120.734375 60.27765625 120.734375 59.59765625 C121.724375 59.59765625 122.714375 59.59765625 123.734375 59.59765625 C124.023125 58.99953125 124.311875 58.40140625 124.609375 57.78515625 C125.734375 55.59765625 125.734375 55.59765625 127.734375 52.59765625 C126.63403685 50.99086109 125.52894836 49.38731832 124.421875 47.78515625 C123.49955078 46.44517578 123.49955078 46.44517578 122.55859375 45.078125 C121.05067618 43.02774458 119.56777063 41.34250721 117.734375 39.59765625 C114.21785289 35.16944322 114.20569784 31.02676402 114.734375 25.59765625 C115.734375 22.59765625 115.734375 22.59765625 117.734375 20.59765625 C117.981875 19.99953125 118.229375 19.40140625 118.484375 18.78515625 C120.83009879 14.68013962 124.86278983 12.17871303 128.734375 9.59765625 C131.39606222 9.5140404 133.93161616 9.55000984 136.58300781 9.69018555 C137.78111839 9.74104057 137.78111839 9.74104057 139.00343323 9.79292297 C141.64874323 9.90831075 144.29298965 10.03949494 146.9375 10.171875 C148.77729771 10.25777958 150.61712164 10.34312436 152.45697021 10.42793274 C156.31755985 10.6084804 160.17765746 10.79704612 164.03759766 10.9909668 C168.97416669 11.23816549 173.91144502 11.46375479 178.84932327 11.68303204 C182.65201163 11.85462736 186.45401917 12.03871389 190.2559433 12.22641945 C192.07533401 12.31457291 193.89492646 12.3986628 195.71469879 12.47855186 C198.26667436 12.59228437 200.81724062 12.72308131 203.36816406 12.8581543 C204.11439529 12.88791351 204.86062653 12.91767273 205.62947083 12.94833374 C211.99611022 13.31631887 216.71651203 14.88032607 221.671875 19.09765625 C223.734375 21.59765625 223.734375 21.59765625 223.734375 24.59765625 C224.25 25.05140625 224.765625 25.50515625 225.296875 25.97265625 C225.77125 26.50890625 226.245625 27.04515625 226.734375 27.59765625 C226.421875 30.28515625 226.421875 30.28515625 225.734375 32.59765625 C226.394375 32.59765625 227.054375 32.59765625 227.734375 32.59765625 C227.38657127 41.12650962 227.03059343 49.65496796 226.66454506 58.18305588 C226.49477225 62.14418448 226.3276814 66.10538621 226.16699219 70.06689453 C226.01144012 73.89920603 225.84848753 77.73114136 225.68067551 81.56293488 C225.61831381 83.01543642 225.55849514 84.46804974 225.50142288 85.92076874 C224.49658569 111.35243051 224.49658569 111.35243051 217.734375 118.59765625 C216.40490675 118.94608566 215.07181087 119.2811848 213.734375 119.59765625 C213.404375 120.25765625 213.074375 120.91765625 212.734375 121.59765625 C208.5651383 123.72123943 204.44460703 125.0392405 199.734375 124.59765625 C199.734375 123.93765625 199.734375 123.27765625 199.734375 122.59765625 C199.1775 122.82453125 198.620625 123.05140625 198.046875 123.28515625 C195.734375 123.59765625 195.734375 123.59765625 193.359375 122.59765625 C190.45999152 120.38860217 188.39749265 117.98229886 186.1640625 115.12109375 C184.70404549 113.32345273 184.70404549 113.32345273 181.734375 112.59765625 C180.671875 110.66015625 180.671875 110.66015625 179.734375 108.59765625 C179.074375 107.93765625 178.414375 107.27765625 177.734375 106.59765625 C174.91336872 106.59765625 174.11551238 107.84503253 172.046875 109.72265625 C171.33144531 110.36460937 170.61601563 111.0065625 169.87890625 111.66796875 C169.17121094 112.30476563 168.46351563 112.9415625 167.734375 113.59765625 C166.00752321 115.08851745 164.27069376 116.56683528 162.53125 118.04296875 C161.2117605 119.18461402 159.9123902 120.34962012 158.625 121.52734375 C157.91859375 122.16929687 157.2121875 122.81125 156.484375 123.47265625 C155.51757812 124.36597656 155.51757812 124.36597656 154.53125 125.27734375 C152.734375 126.59765625 152.734375 126.59765625 149.734375 126.59765625 C149.5075 127.1596875 149.280625 127.72171875 149.046875 128.30078125 C147.36507865 131.24392486 145.2632839 133.09810357 142.734375 135.34765625 C141.8475 136.146875 140.960625 136.94609375 140.046875 137.76953125 C137.734375 139.59765625 137.734375 139.59765625 135.734375 139.59765625 C134.51654151 140.88442371 133.3573128 142.22729148 132.234375 143.59765625 C131.1114372 144.96802102 129.95220849 146.31088879 128.734375 147.59765625 C128.074375 147.59765625 127.414375 147.59765625 126.734375 147.59765625 C126.734375 148.25765625 126.734375 148.91765625 126.734375 149.59765625 C125.0546875 151.10546875 125.0546875 151.10546875 122.859375 152.72265625 C122.14007812 153.26148438 121.42078125 153.8003125 120.6796875 154.35546875 C118.734375 155.59765625 118.734375 155.59765625 116.734375 155.59765625 C116.486875 156.1803125 116.239375 156.76296875 115.984375 157.36328125 C114.54912054 159.92879861 112.95774487 161.43490423 110.734375 163.34765625 C110.033125 163.96125 109.331875 164.57484375 108.609375 165.20703125 C106.734375 166.59765625 106.734375 166.59765625 104.734375 166.59765625 C102.31582607 168.8739376 100.05103309 171.26274154 97.76953125 173.67578125 C97.07730469 174.3925 96.38507812 175.10921875 95.671875 175.84765625 C94.69541016 176.87632812 94.69541016 176.87632812 93.69921875 177.92578125 C91.61440138 179.69974116 90.31916397 179.95284868 87.734375 180.59765625 C87.404375 181.58765625 87.074375 182.57765625 86.734375 183.59765625 C82.71111524 187.73866995 78.05880221 191.13957734 73.32421875 194.4140625 C70.88456081 196.2303189 68.85308041 198.42319543 66.734375 200.59765625 C65.07544318 201.94060106 63.40960895 203.27510313 61.734375 204.59765625 C60.8990625 205.43296875 60.8990625 205.43296875 60.046875 206.28515625 C58.734375 207.59765625 58.734375 207.59765625 56.734375 208.59765625 C55.950625 209.40203125 55.166875 210.20640625 54.359375 211.03515625 C52.12192904 213.21932968 50.57613414 214.43990253 47.734375 215.59765625 C47.734375 216.25765625 47.734375 216.91765625 47.734375 217.59765625 C45.70397098 219.27727304 43.66962987 220.85530128 41.546875 222.41015625 C37.27318353 225.55944283 33.43811618 228.76486486 29.734375 232.59765625 C25.08572635 236.59765625 25.08572635 236.59765625 22.734375 236.59765625 C22.734375 237.25765625 22.734375 237.91765625 22.734375 238.59765625 C21.4765625 239.90234375 21.4765625 239.90234375 19.609375 241.47265625 C18.89007812 242.08238281 18.17078125 242.69210937 17.4296875 243.3203125 C16.54023437 244.07183594 15.65078125 244.82335937 14.734375 245.59765625 C13.56373682 246.61561721 12.39456532 247.63526632 11.2265625 248.65625 C9.97930006 249.74103881 8.73190361 250.82567355 7.484375 251.91015625 C6.88222168 252.43786621 6.28006836 252.96557617 5.65966797 253.50927734 C2.82320936 255.95869482 0.24612063 258.1634037 -3.265625 259.59765625 C-3.265625 260.25765625 -3.265625 260.91765625 -3.265625 261.59765625 C-6.72716346 264.59765625 -6.72716346 264.59765625 -9.265625 264.59765625 C-9.595625 265.58765625 -9.925625 266.57765625 -10.265625 267.59765625 C-12.25162837 268.95174945 -14.25380043 270.28223249 -16.265625 271.59765625 C-17.97059037 273.22512319 -19.64459532 274.88656936 -21.265625 276.59765625 C-21.925625 277.25765625 -22.585625 277.91765625 -23.265625 278.59765625 C-24.255625 278.59765625 -25.245625 278.59765625 -26.265625 278.59765625 C-26.595625 279.58765625 -26.925625 280.57765625 -27.265625 281.59765625 C-28.65625 283.03515625 -28.65625 283.03515625 -30.515625 284.59765625 C-31.59457031 285.51417969 -31.59457031 285.51417969 -32.6953125 286.44921875 C-33.54351563 287.15820312 -34.39171875 287.8671875 -35.265625 288.59765625 C-36.83511399 289.91808535 -38.40309636 291.24028004 -39.97045898 292.56323242 C-41.08612581 293.5047241 -42.20283047 294.44498728 -43.32055664 295.3840332 C-47.77653906 299.14139446 -52.08083902 303.03544219 -56.33984375 307.015625 C-58.265625 308.59765625 -58.265625 308.59765625 -60.265625 308.59765625 C-60.595625 309.58765625 -60.925625 310.57765625 -61.265625 311.59765625 C-63.4453125 313.60546875 -63.4453125 313.60546875 -66.140625 315.72265625 C-67.02492188 316.42648437 -67.90921875 317.1303125 -68.8203125 317.85546875 C-71.265625 319.59765625 -71.265625 319.59765625 -74.265625 320.59765625 C-74.595625 321.58765625 -74.925625 322.57765625 -75.265625 323.59765625 C-79.72276786 327.59765625 -79.72276786 327.59765625 -82.265625 327.59765625 C-82.595625 328.58765625 -82.925625 329.57765625 -83.265625 330.59765625 C-88.73074128 335.59765625 -88.73074128 335.59765625 -91.265625 335.59765625 C-91.66974609 336.46390625 -91.66974609 336.46390625 -92.08203125 337.34765625 C-103.16763168 358.4212729 -126.29460776 375.42509065 -146.74072266 386.51538086 C-151.6043995 389.16427193 -155.9575216 392.09732223 -160.265625 395.59765625 C-160.595625 394.93765625 -160.925625 394.27765625 -161.265625 393.59765625 C-162.43996094 394.0565625 -163.61429688 394.51546875 -164.82421875 394.98828125 C-175.46743405 399.07471459 -186.0110403 402.62013813 -197.265625 404.59765625 C-198.63930599 404.84872934 -198.63930599 404.84872934 -200.04073811 405.10487461 C-213.03988671 407.15895888 -226.07627197 406.90170375 -239.20581055 406.90405273 C-241.91758865 406.91061522 -244.62935526 406.92006654 -247.34112549 406.92927551 C-254.66932124 406.95196509 -261.99748775 406.96002701 -269.32571387 406.96510196 C-273.90912599 406.96837438 -278.49252985 406.97490558 -283.07593727 406.98210335 C-295.7922205 407.00163955 -308.50849614 407.01806409 -321.22479534 407.02097988 C-322.0357781 407.02116745 -322.84676086 407.02135502 -323.68231886 407.02154827 C-325.32594351 407.0219145 -326.96956816 407.02227819 -328.61319282 407.02263939 C-329.42895686 407.0228222 -330.24472091 407.02300501 -331.08520508 407.02319336 C-332.31036014 407.02346418 -332.31036014 407.02346418 -333.56026582 407.02374048 C-346.81089067 407.02728639 -360.06135348 407.05434811 -373.3119221 407.09169125 C-386.94945323 407.12981491 -400.58690393 407.1491376 -414.22448951 407.14943939 C-421.86843193 407.15002264 -429.51218034 407.15843072 -437.15607262 407.18743706 C-443.6592383 407.21200412 -450.16213899 407.2191973 -456.6653386 407.20418953 C-459.97855257 407.1970449 -463.29082004 407.2005197 -466.60404396 407.22060013 C-470.20565345 407.24109321 -473.8059229 407.23048801 -477.40751648 407.21238708 C-478.44012326 407.22558705 -479.47273005 407.23878702 -480.53662795 407.25238699 C-490.76236019 407.1355855 -500.12149619 403.67399227 -507.58203125 396.5546875 C-514.92328622 388.02111733 -516.86608583 378.53572026 -516.56640625 367.57421875 C-515.79400943 357.36253088 -510.89747567 350.28145093 -503.265625 343.59765625 C-497.82806726 340.17168056 -492.30302354 337.477447 -485.80536461 337.46457767 C-484.42748097 337.45821611 -484.42748097 337.45821611 -483.0217613 337.45172602 C-482.01099456 337.45211215 -481.00022782 337.45249828 -479.95883179 337.45289612 C-478.88612176 337.44936927 -477.81341172 337.44584243 -476.70819533 337.44220871 C-473.09501004 337.43149039 -469.48185108 337.42783517 -465.86865234 337.42407227 C-463.28498726 337.41776901 -460.70132327 337.41100347 -458.11766052 337.40380859 C-452.5421521 337.38886072 -446.96664502 337.37731946 -441.39112473 337.36786079 C-433.31130982 337.35397685 -425.2315261 337.33278491 -417.15173359 337.30943226 C-404.01880636 337.27149196 -390.88587344 337.23654044 -377.75292969 337.20483398 C-376.96657255 337.20293349 -376.18021542 337.201033 -375.37002929 337.19907492 C-364.23787506 337.17230617 -353.10571649 337.14841786 -341.97355337 337.12568992 C-341.19144092 337.12409262 -340.40932846 337.12249531 -339.60351562 337.12084961 C-338.82236182 337.11925614 -338.04120802 337.11766268 -337.23638289 337.11602093 C-324.16984973 337.08916952 -311.10334934 337.05473035 -298.03685153 337.01419586 C-289.98851742 336.98953022 -281.94021843 336.97114275 -273.89185263 336.96104025 C-267.70452007 336.9527136 -261.51725549 336.9341583 -255.32995796 336.91197968 C-252.8053889 336.90455171 -250.28080744 336.90042601 -247.75622749 336.89998436 C-217.43867864 336.89040447 -191.56711882 333.48884201 -166.265625 315.59765625 C-165.46898437 315.04464844 -164.67234375 314.49164063 -163.8515625 313.921875 C-160.80661541 311.58167715 -158.65031499 309.91870704 -157.5546875 306.15625 C-157.29760196 303.93628165 -157.18467041 301.82896704 -157.265625 299.59765625 C-156.275625 299.26765625 -155.285625 298.93765625 -154.265625 298.59765625 C-152.55273495 296.87000461 -152.55273495 296.87000461 -150.890625 294.78515625 C-148.93969262 292.41107644 -147.2024399 290.5504378 -144.73046875 288.703125 C-136.01800101 281.26093782 -132.63019935 264.59222676 -131.265625 253.59765625 C-129.75766942 223.53038468 -136.3652089 197.40849687 -156.9375 174.640625 C-173.05197597 158.00265616 -196.20823701 145.80789611 -219.7335968 145.34609985 C-222.20168573 145.33485401 -224.66983808 145.33422033 -227.13793945 145.34228516 C-228.50746874 145.33952912 -229.87699643 145.33584553 -231.246521 145.33131409 C-234.17710345 145.32325348 -237.10760986 145.32102059 -240.03820229 145.32326126 C-244.68431849 145.32611629 -249.33028532 145.31166094 -253.97636414 145.29428101 C-267.18172989 145.24746288 -280.38708412 145.22332593 -293.5925293 145.21679688 C-300.90027789 145.21303148 -308.2078558 145.19488738 -315.51553124 145.16170251 C-320.12168646 145.14163291 -324.72739714 145.13904618 -329.33357775 145.14998269 C-332.21434307 145.15261325 -335.09485616 145.13847333 -337.97555542 145.11990166 C-339.92076379 145.11215249 -341.86602037 145.12392469 -343.811203 145.13658142 C-355.48597893 145.02842583 -366.58733761 142.86269186 -375.265625 134.59765625 C-383.61461842 125.86916312 -385.791927 117.24635461 -385.53125 105.421875 C-384.82692748 95.2817023 -379.77897634 88.23178563 -372.265625 81.59765625 C-364.80217656 76.50142345 -358.36597937 74.48391429 -349.3392334 74.45721436 C-348.17638321 74.45150421 -347.01353302 74.44579407 -345.81544495 74.43991089 C-344.55312546 74.43879303 -343.29080597 74.43767517 -341.99023438 74.43652344 C-340.6358985 74.43188933 -339.28156393 74.42686388 -337.92723083 74.42147827 C-334.25473895 74.40839467 -330.58226533 74.40191525 -326.9097538 74.39746761 C-324.60494879 74.3945256 -322.30014862 74.39041835 -319.99534607 74.38596344 C-312.75514962 74.37228867 -305.51496442 74.36262634 -298.27475595 74.35876155 C-289.9736496 74.35430427 -281.67270982 74.33686574 -273.37165403 74.30776095 C-266.92283162 74.28595307 -260.47405535 74.27604694 -254.02519655 74.27472043 C-250.19037229 74.27368436 -246.35570454 74.26804032 -242.5209198 74.24990082 C-189.81280947 74.01504354 -144.90043666 87.27636027 -106.578125 124.97265625 C-82.57650555 149.12099799 -65.43649194 183.57050351 -62.265625 217.59765625 C-61.77433105 217.16251709 -61.28303711 216.72737793 -60.77685547 216.27905273 C-56.52518934 212.52186233 -52.22264827 208.82420611 -47.890625 205.16015625 C-47.36694336 204.7110791 -46.84326172 204.26200195 -46.30371094 203.79931641 C-42.49545961 200.59765625 -42.49545961 200.59765625 -40.265625 200.59765625 C-39.935625 199.60765625 -39.605625 198.61765625 -39.265625 197.59765625 C-37.734375 196.01953125 -37.734375 196.01953125 -35.765625 194.34765625 C-35.04503906 193.7340625 -34.32445312 193.12046875 -33.58203125 192.48828125 C-31.32210728 190.64375646 -29.02372456 188.86497392 -26.703125 187.09765625 C-23.10234398 184.34740454 -19.94906762 181.3992968 -16.87109375 178.078125 C-15.11718941 176.46077769 -13.40394361 175.6305367 -11.265625 174.59765625 C-8.70312525 172.28533203 -8.70312525 172.28533203 -6.265625 169.59765625 C-5.50531982 168.89463379 -4.74501465 168.19161133 -3.96166992 167.46728516 C-1.83230333 164.57337715 -1.83230333 164.57337715 -2.95043945 160.67333984 C-3.4836873 159.10508879 -4.04544914 157.54636548 -4.62890625 155.99609375 C-4.92649338 155.14411407 -5.22408051 154.2921344 -5.53068542 153.41433716 C-6.52293504 150.59147187 -7.55049621 147.78281484 -8.578125 144.97265625 C-9.28242622 142.98850817 -9.98421243 141.00346573 -10.68359375 139.01757812 C-12.13768607 134.89990208 -13.60533575 130.78745593 -15.08447266 126.67871094 C-17.11937188 121.01982355 -19.11417285 115.3477743 -21.08984375 109.66796875 C-21.39516525 108.790233 -21.70048676 107.91249725 -22.01506042 107.00816345 C-22.6272519 105.24747761 -23.23926762 103.48673064 -23.85110474 101.72592163 C-24.76641932 99.09537343 -25.68522536 96.46607137 -26.60522461 93.8371582 C-31.34201225 80.29800475 -36.00778092 66.73520652 -40.640625 53.16015625 C-41.13453735 51.71552002 -41.13453735 51.71552002 -41.63842773 50.24169922 C-42.56549095 47.52894733 -43.49021488 44.81541092 -44.4140625 42.1015625 C-44.68934784 41.29638687 -44.96463318 40.49121124 -45.2482605 39.66163635 C-45.50068512 38.91808395 -45.75310974 38.17453156 -46.01318359 37.40844727 C-46.34169815 36.44383324 -46.34169815 36.44383324 -46.67684937 35.45973206 C-49.78895824 25.61730262 -48.28920702 16.6448203 -43.703125 7.47265625 C-42.9915625 6.54453125 -42.9915625 6.54453125 -42.265625 5.59765625 C-41.605625 5.59765625 -40.945625 5.59765625 -40.265625 5.59765625 C-40.08 5.02015625 -39.894375 4.44265625 -39.703125 3.84765625 C-31.43842152 -9.08840137 -11.08544092 -6.86150568 0 0 Z M115.734375 29.59765625 C116.734375 33.59765625 116.734375 33.59765625 116.734375 33.59765625 Z M224.734375 47.59765625 C225.734375 50.59765625 225.734375 50.59765625 225.734375 50.59765625 Z M223.734375 68.59765625 C224.734375 71.59765625 224.734375 71.59765625 224.734375 71.59765625 Z M222.734375 89.59765625 C223.734375 92.59765625 223.734375 92.59765625 223.734375 92.59765625 Z " fill="#0000FE" transform="translate(775.265625,133.40234375)"/>
<path d="M0 0 C1.08927351 -0.00226556 2.17854702 -0.00453111 3.30082881 -0.00686532 C6.92166342 -0.01315512 10.54246012 -0.01237922 14.16329956 -0.0115509 C16.77097624 -0.01454541 19.37865247 -0.01794861 21.98632812 -0.02172852 C28.31586558 -0.02999988 34.64539373 -0.0327817 40.97493614 -0.03334089 C46.12095563 -0.03381744 51.26697205 -0.03587906 56.41299057 -0.03904152 C71.02219407 -0.04783613 85.63139026 -0.05246241 100.24059643 -0.05171105 C101.41953174 -0.05165111 101.41953174 -0.05165111 102.62228394 -0.05158997 C103.40920615 -0.05154909 104.19612837 -0.0515082 105.00689672 -0.05146609 C117.77151971 -0.05105927 130.53611326 -0.06064077 143.30072774 -0.07472833 C156.42621557 -0.08909934 169.55168904 -0.09599821 182.67718494 -0.09513456 C190.0387712 -0.09480299 197.40032652 -0.09753298 204.76190567 -0.10831261 C211.68124077 -0.11838046 218.60050954 -0.11807495 225.51984787 -0.11079597 C228.05746811 -0.10974994 230.59509242 -0.11211413 233.13270569 -0.11815643 C236.59945229 -0.12587606 240.06597309 -0.12123163 243.53271484 -0.11352539 C244.5339882 -0.11866895 245.53526156 -0.12381252 246.56687653 -0.12911195 C257.70708226 -0.07447774 266.96351483 2.08850482 275.45187378 9.63371277 C276.17374878 10.45871277 276.89562378 11.28371277 277.63937378 12.13371277 C278.31999878 12.85558777 279.00062378 13.57746277 279.70187378 14.32121277 C285.25118086 22.37665853 287.46333536 31.44661405 286.26828003 41.14543152 C284.26217913 50.87688992 279.35307242 59.22947104 270.96071935 64.78556353 C262.97375142 69.42409081 255.19984577 70.72042011 246.09133911 70.63250732 C244.98179768 70.63789188 243.87225626 70.64327643 242.72909236 70.64882416 C239.03912556 70.66201863 235.34983313 70.6469909 231.65988159 70.63200378 C229.00280756 70.63582975 226.34578232 70.64125357 223.6887207 70.64872742 C217.97960963 70.66177554 212.27064521 70.66068337 206.56153107 70.65013313 C198.29096142 70.63513525 190.02056227 70.64515226 181.75000224 70.66165232 C168.30752251 70.68807493 154.8650812 70.69897375 141.4225769 70.69792175 C140.61928486 70.69786343 139.81599281 70.69780511 138.98835859 70.69774502 C135.73413531 70.6974792 132.47991204 70.69716193 129.22568877 70.69678176 C120.27634367 70.69581614 111.32699974 70.69714271 102.37765503 70.69987488 C101.57656324 70.70011477 100.77547145 70.70035466 99.95010415 70.70060182 C86.56014771 70.70501887 73.17022679 70.72129372 59.78029132 70.74509567 C51.53790798 70.7591125 43.29566033 70.76209484 35.05327246 70.75047278 C29.39851215 70.74311176 23.74381989 70.74626324 18.08906606 70.75743122 C14.83447493 70.76346245 11.58011246 70.76302618 8.32552719 70.75255394 C-19.1267407 70.66954321 -43.73345809 74.90348204 -65.36062622 93.13371277 C-66.15082153 93.76664246 -66.94101685 94.39957214 -67.75515747 95.05168152 C-85.8454798 110.23615679 -96.66422458 132.85817027 -99.36062622 156.13371277 C-100.50724741 182.82598735 -94.25769061 207.04512853 -77.36062622 228.13371277 C-76.75734497 228.90199402 -76.15406372 229.67027527 -75.53250122 230.46183777 C-59.35781319 249.89864776 -35.91138196 259.22743016 -11.36062622 262.13371277 C-6.66563277 262.39129825 -1.98494651 262.40475327 2.71627808 262.38908386 C4.07141326 262.39184255 5.42654682 262.39552771 6.78167725 262.40005493 C9.67128888 262.40808886 12.56082352 262.41035544 15.45044518 262.40810776 C20.0287684 262.40524506 24.60694105 262.41973348 29.18522644 262.43708801 C42.1940897 262.48384245 55.2029398 262.50805979 68.21188354 262.51457214 C75.41854583 262.51833179 82.62503454 262.53642384 89.83162242 262.5696665 C94.37422132 262.58977194 98.91636939 262.59230597 103.45899427 262.58138633 C106.29154163 262.57876446 109.12383039 262.59285279 111.95631027 262.61146736 C113.87701914 262.61925409 115.79777692 262.60741185 117.71846008 262.5947876 C128.33447252 262.69527038 137.59727972 265.30408795 145.41671753 272.84855652 C151.10899608 278.92593637 154.92354658 285.72274314 155.63937378 294.13371277 C155.74249878 295.30933777 155.84562378 296.48496277 155.95187378 297.69621277 C155.72090107 307.76277333 152.02282477 315.94700372 145.01046753 323.03996277 C138.29362961 328.9711409 131.53916607 332.37236872 122.42272949 332.40113831 C120.58181984 332.41393326 120.58181984 332.41393326 118.70372009 332.42698669 C117.35626208 332.42628771 116.00880416 332.42536468 114.66134644 332.42424011 C113.23143667 332.43023011 111.80153014 332.43703674 110.37162781 332.44459534 C106.49237884 332.46223892 102.61321819 332.46695071 98.73393297 332.46822691 C96.29911806 332.4696528 93.86432524 332.47393121 91.42951584 332.47922134 C82.90147238 332.49773343 74.37349134 332.50589263 65.84542847 332.50431824 C57.95562808 332.5031244 50.06610463 332.5240733 42.17637408 332.55580556 C35.36403194 332.58220564 28.55177868 332.59267536 21.73938596 332.59140742 C17.68872376 332.59090362 13.63830635 332.59625353 9.58769608 332.61776352 C-33.97094695 332.83262166 -75.57900774 324.4688618 -109.36062622 295.13371277 C-110.16629028 294.43761902 -110.97195435 293.74152527 -111.80203247 293.02433777 C-114.36034543 290.76629628 -116.86722335 288.46317631 -119.36062622 286.13371277 C-120.2242981 285.33578308 -121.08796997 284.53785339 -121.97781372 283.71574402 C-142.29956195 264.24809825 -156.46771847 239.05954523 -164.17312622 212.07121277 C-164.44733398 211.11988464 -164.44733398 211.11988464 -164.7270813 210.14933777 C-168.54529485 195.77322534 -169.94496417 181.39275615 -169.86062622 166.57121277 C-169.85919617 165.75076477 -169.85776611 164.93031677 -169.85629272 164.08500671 C-169.79445279 149.65638727 -168.28967188 136.06820935 -164.36062622 122.13371277 C-164.01572144 120.88340271 -164.01572144 120.88340271 -163.66384888 119.60783386 C-160.50229308 108.46743307 -155.87165449 98.29072719 -150.36062622 88.13371277 C-150.0383606 87.5254364 -149.71609497 86.91716003 -149.38406372 86.29045105 C-141.92285588 72.24381739 -132.26667543 60.6003533 -121.36062622 49.13371277 C-120.7805481 48.50078308 -120.20046997 47.86785339 -119.60281372 47.21574402 C-89.2241917 15.08157349 -43.35563669 -0.06735536 0 0 Z " fill="#0000FF" transform="translate(428.3606262207031,75.86628723144531)"/>
<path d="M0 0 C0.90768127 0.00005035 1.81536255 0.00010071 2.75054932 0.00015259 C5.85725993 0.0038496 8.96366574 0.02309662 12.0703125 0.04296875 C14.30973168 0.05063046 16.54915238 0.05785675 18.78857422 0.06469727 C26.39405546 0.09454941 33.99923207 0.15011519 41.60452271 0.21012878 C44.37623771 0.23188917 47.1479573 0.25299115 49.91967773 0.27404785 C63.95076677 0.38155491 77.98167894 0.50427986 92.01255035 0.63708115 C95.327186 0.66803293 98.6418317 0.69761479 101.95648193 0.72695923 C107.23303508 0.77418147 112.50951118 0.82669421 117.7859726 0.88322067 C119.76181162 0.90367221 121.73766837 0.92248133 123.71353912 0.93959427 C126.4368636 0.96355396 129.16005569 0.99355359 131.88330078 1.02514648 C132.68702559 1.030901 133.49075039 1.03665552 134.31883049 1.04258442 C137.53110343 1.08535926 140.1263384 1.20747738 143.1953125 2.23046875 C143.1953125 2.89046875 143.1953125 3.55046875 143.1953125 4.23046875 C144.1853125 4.23046875 145.1753125 4.23046875 146.1953125 4.23046875 C146.1953125 4.89046875 146.1953125 5.55046875 146.1953125 6.23046875 C146.8553125 6.23046875 147.5153125 6.23046875 148.1953125 6.23046875 C150.59761914 11.89540238 151.63819428 16.36764717 151.55859375 22.4921875 C151.55909225 23.24587112 151.55959076 23.99955475 151.56010437 24.77607727 C151.55778178 26.35505842 151.54816178 27.93404457 151.53149414 29.51293945 C151.50776911 31.92237506 151.51096327 34.33071046 151.51757812 36.74023438 C151.51200424 38.28255864 151.50489619 39.82487828 151.49609375 41.3671875 C151.49700516 42.08186691 151.49791656 42.79654633 151.49885559 43.53288269 C151.40442385 50.21528744 149.69533414 54.30857008 145.1953125 59.23046875 C144.5353125 59.23046875 143.8753125 59.23046875 143.1953125 59.23046875 C142.8653125 59.89046875 142.5353125 60.55046875 142.1953125 61.23046875 C137.51553629 63.89617148 132.61178114 63.50209871 127.390625 63.4609375 C125.95636673 63.46025017 125.95636673 63.46025017 124.49313354 63.45954895 C122.46741497 63.45653102 120.44169862 63.44865847 118.41601562 63.4362793 C115.36579841 63.41823779 112.31588957 63.41576844 109.265625 63.41601562 C99.84019226 63.39845957 90.52062385 63.17916503 81.12304688 62.45532227 C73.3572671 62.01074972 65.57830815 62.08300254 57.80200195 62.10009766 C54.84256056 62.10554281 51.88326543 62.10007514 48.92382812 62.09375 C47.03906217 62.09440942 45.1542963 62.09568774 43.26953125 62.09765625 C41.94474007 62.0946199 41.94474007 62.0946199 40.59318542 62.09152222 C36.25806243 61.97564086 36.25806243 61.97564086 32.1953125 63.23046875 C31.5353125 62.90046875 30.8753125 62.57046875 30.1953125 62.23046875 C30.1953125 62.89046875 30.1953125 63.55046875 30.1953125 64.23046875 C28.5453125 64.56046875 26.8953125 64.89046875 25.1953125 65.23046875 C25.1953125 65.89046875 25.1953125 66.55046875 25.1953125 67.23046875 C23.26867116 68.8360032 21.43898246 70.10863377 19.1953125 71.23046875 C18.58928585 73.59242286 18.58928585 73.59242286 18.1953125 76.23046875 C17.87047832 77.56589814 17.540227 78.90008426 17.1953125 80.23046875 C16.5353125 80.23046875 15.8753125 80.23046875 15.1953125 80.23046875 C15.5253125 81.22046875 15.8553125 82.21046875 16.1953125 83.23046875 C15.7421875 85.24609375 15.7421875 85.24609375 14.9453125 87.48046875 C14.66429687 88.27453125 14.38328125 89.06859375 14.09375 89.88671875 C13.30412624 91.94660682 12.46359049 93.96396003 11.5703125 95.98046875 C10.38120768 98.79108013 9.65007538 101.22903376 9.1953125 104.23046875 C8.5353125 104.23046875 7.8753125 104.23046875 7.1953125 104.23046875 C7.5253125 105.22046875 7.8553125 106.21046875 8.1953125 107.23046875 C7.2578125 109.41796875 7.2578125 109.41796875 6.1953125 111.23046875 C6.8553125 111.23046875 7.5153125 111.23046875 8.1953125 111.23046875 C8.4634375 111.84921875 8.7315625 112.46796875 9.0078125 113.10546875 C10.15088098 115.52999205 10.15088098 115.52999205 13.1953125 117.23046875 C13.1953125 117.89046875 13.1953125 118.55046875 13.1953125 119.23046875 C13.7728125 119.04484375 14.3503125 118.85921875 14.9453125 118.66796875 C17.46638719 118.17775978 18.73701898 118.60522443 21.1953125 119.23046875 C24.08987049 119.31537222 26.95926046 119.3463086 29.85327148 119.328125 C30.72720551 119.32666473 31.60113953 119.32520447 32.5015564 119.32369995 C34.40090435 119.31989479 36.30024875 119.31377909 38.19958305 119.30563354 C41.22592246 119.29282264 44.25221771 119.28633993 47.27857971 119.28149414 C54.81082413 119.26814402 62.34302771 119.24419632 69.87524414 119.22009277 C76.21873315 119.20014318 82.56220519 119.18458165 88.90571785 119.17453003 C91.85029782 119.16816567 94.79480688 119.15564902 97.73936462 119.14282227 C107.02583777 119.11565901 116.30532065 119.20845287 125.58618164 119.546875 C126.85946776 119.58022194 126.85946776 119.58022194 128.15847683 119.61424255 C133.73848836 119.85784522 138.05718637 121.0278447 143.1953125 123.23046875 C143.1953125 123.89046875 143.1953125 124.55046875 143.1953125 125.23046875 C144.5153125 125.56046875 145.8353125 125.89046875 147.1953125 126.23046875 C147.1953125 127.22046875 147.1953125 128.21046875 147.1953125 129.23046875 C147.8553125 129.56046875 148.5153125 129.89046875 149.1953125 130.23046875 C151.24857053 132.28372678 150.40763885 136.56928665 150.43359375 139.39453125 C150.4416655 140.21996429 150.44973724 141.04539734 150.45805359 141.89584351 C150.47191567 143.64945362 150.48262828 145.40309095 150.49047852 147.15673828 C150.50760893 149.82377493 150.551464 152.48954529 150.59570312 155.15625 C150.60583713 156.86066797 150.61435102 158.56509649 150.62109375 160.26953125 C150.63860184 161.06146881 150.65610992 161.85340637 150.67414856 162.66934204 C150.65231536 168.31899367 149.41967142 171.57115444 146.1953125 176.23046875 C144.01171875 177.97265625 144.01171875 177.97265625 141.7578125 179.10546875 C141.01660156 179.49476563 140.27539062 179.8840625 139.51171875 180.28515625 C135.26593591 182.0178366 131.26053988 182.3508848 126.70581055 182.29638672 C125.63086838 182.28662811 124.55592621 182.27686951 123.44841003 182.26681519 C121.72017754 182.24495651 121.72017754 182.24495651 119.95703125 182.22265625 C117.50325936 182.20513721 115.04948305 182.1882292 112.59570312 182.171875 C108.73791215 182.14094394 104.88034326 182.10543908 101.02270508 182.05908203 C97.29245268 182.01661961 93.56245994 181.99326609 89.83203125 181.97265625 C88.11290779 181.94472488 88.11290779 181.94472488 86.35905457 181.91622925 C79.8410126 181.89546643 75.16282785 182.62426351 69.1953125 185.23046875 C68.2053125 185.23046875 67.2153125 185.23046875 66.1953125 185.23046875 C66.1953125 185.89046875 66.1953125 186.55046875 66.1953125 187.23046875 C65.2053125 187.23046875 64.2153125 187.23046875 63.1953125 187.23046875 C62.9271875 187.78734375 62.6590625 188.34421875 62.3828125 188.91796875 C61.1953125 191.23046875 61.1953125 191.23046875 59.6328125 193.73046875 C58.34357303 195.97262435 57.66183322 197.71125688 57.1953125 200.23046875 C56.5353125 200.23046875 55.8753125 200.23046875 55.1953125 200.23046875 C55.5253125 201.22046875 55.8553125 202.21046875 56.1953125 203.23046875 C55.8653125 204.22046875 55.5353125 205.21046875 55.1953125 206.23046875 C54.5353125 206.23046875 53.8753125 206.23046875 53.1953125 206.23046875 C53.5253125 207.22046875 53.8553125 208.21046875 54.1953125 209.23046875 C53.5353125 209.23046875 52.8753125 209.23046875 52.1953125 209.23046875 C52.5253125 210.22046875 52.8553125 211.21046875 53.1953125 212.23046875 C52.5258593 213.90410175 51.84181487 215.57401509 51.0703125 217.203125 C50.13529119 219.36953598 49.55950873 221.51660398 48.9453125 223.79296875 C47.337927 228.71611281 44.64627382 231.61998933 40.1953125 234.23046875 C36.7578125 235.10546875 36.7578125 235.10546875 34.1953125 235.23046875 C34.1953125 235.89046875 34.1953125 236.55046875 34.1953125 237.23046875 C25.56564419 239.46227952 17.71025725 240.37808335 8.79057312 240.37091064 C7.05894046 240.37536733 7.05894046 240.37536733 5.29232532 240.37991405 C2.09660291 240.38707687 -1.09908669 240.389772 -4.2948159 240.39051151 C-7.74481865 240.39236706 -11.19480986 240.39991681 -14.64480591 240.40664673 C-22.18406906 240.42020912 -29.72332687 240.42625124 -37.26260018 240.43065739 C-41.97207199 240.43342283 -46.68154176 240.43766069 -51.39101219 240.44216156 C-64.43634697 240.45435051 -77.48168011 240.4646512 -90.52702045 240.46803665 C-91.36137965 240.46825622 -92.19573885 240.46847578 -93.05538167 240.468702 C-94.30986549 240.46902942 -94.30986549 240.46902942 -95.58969241 240.46936345 C-97.28432294 240.46980691 -98.97895346 240.47025348 -100.67358398 240.47070312 C-101.51417416 240.47092455 -102.35476434 240.47114598 -103.22082695 240.47137412 C-116.84259463 240.47532251 -130.46430883 240.49277943 -144.08605585 240.51606265 C-158.07923495 240.5397873 -172.07238721 240.55223898 -186.06558675 240.55340457 C-193.91910828 240.5543206 -201.77256009 240.56005491 -209.62606239 240.57822418 C-216.31283563 240.59364006 -222.99951757 240.5987368 -229.6863052 240.59048608 C-233.09605435 240.58658509 -236.50561973 240.58748207 -239.91534615 240.60154343 C-243.61672119 240.61423654 -247.31762543 240.60839985 -251.01899719 240.59796143 C-252.08982727 240.60601783 -253.16065735 240.61407423 -254.26393682 240.62237477 C-260.6447642 240.58032696 -265.89710605 239.67546589 -271.8046875 237.23046875 C-273.14933945 230.01824464 -273.14933945 230.01824464 -271.4921875 226.23046875 C-270.656875 225.24046875 -270.656875 225.24046875 -269.8046875 224.23046875 C-269.1446875 224.23046875 -268.4846875 224.23046875 -267.8046875 224.23046875 C-267.5778125 223.65296875 -267.3509375 223.07546875 -267.1171875 222.48046875 C-265.45742405 219.63515997 -263.38402083 218.29393541 -260.8046875 216.23046875 C-259.02975934 214.29456859 -257.33059086 212.30239168 -255.62109375 210.30859375 C-242.70389174 195.5302035 -242.70389174 195.5302035 -235.8046875 193.23046875 C-235.8046875 192.57046875 -235.8046875 191.91046875 -235.8046875 191.23046875 C-233.79296875 189.72265625 -233.79296875 189.72265625 -231.1171875 188.10546875 C-230.24707031 187.56664062 -229.37695312 187.0278125 -228.48046875 186.47265625 C-225.65045497 185.15886883 -223.8813648 184.97546487 -220.8046875 185.23046875 C-220.4746875 184.57046875 -220.1446875 183.91046875 -219.8046875 183.23046875 C-209.87423813 178.7107813 -200.26524827 178.76272628 -189.6171875 179.04296875 C-186.66548262 179.10136282 -183.71372343 179.14723405 -180.76171875 179.1875 C-179.97435333 179.19927277 -179.18698792 179.21104553 -178.37576294 179.22317505 C-173.19208596 179.27654484 -168.04396332 179.13592984 -162.86662292 178.88615417 C-148.6546289 178.20133237 -134.46778274 178.14757373 -120.2421875 178.16796875 C-118.58649781 178.17015443 -118.58649781 178.17015443 -116.89735985 178.17238426 C-108.86644773 178.18467822 -100.83557273 178.20673888 -92.8046875 178.23046875 C-84.68726882 178.25413835 -76.56986806 178.27441297 -68.4524231 178.28640747 C-65.22273178 178.29288245 -61.99309951 178.30536969 -58.76342773 178.31811523 C-56.80582734 178.32174338 -54.84822641 178.32509564 -52.890625 178.328125 C-51.99423813 178.33329132 -51.09785126 178.33845764 -50.17430115 178.34378052 C-45.85375145 178.47743857 -45.85375145 178.47743857 -41.8046875 177.23046875 C-40.8146875 177.56046875 -39.8246875 177.89046875 -38.8046875 178.23046875 C-38.8046875 177.57046875 -38.8046875 176.91046875 -38.8046875 176.23046875 C-38.2684375 176.12734375 -37.7321875 176.02421875 -37.1796875 175.91796875 C-31.7243189 174.3387831 -24.92778117 171.30953125 -21.63623047 166.53588867 C-20.56958141 164.54688996 -19.60868369 162.53725867 -18.6796875 160.48046875 C-18.03125 159.11067708 -17.3828125 157.74088542 -16.734375 156.37109375 C-16.41919922 155.68974365 -16.10402344 155.00839355 -15.77929688 154.30639648 C-14.78844676 152.1958758 -13.75351336 150.11271091 -12.703125 148.03125 C-7.60339552 138.13248326 -7.60339552 138.13248326 -6.8046875 127.23046875 C-7.7021702 124.39668743 -7.7021702 124.39668743 -8.8046875 122.23046875 C-10.444375 122.26140625 -10.444375 122.26140625 -12.1171875 122.29296875 C-15.8046875 122.23046875 -15.8046875 122.23046875 -18.8046875 121.23046875 C-20.65425338 121.31633423 -22.50082411 121.46952652 -24.34326172 121.65307617 C-35.93813228 122.57553641 -47.5626426 122.43665685 -59.1875 122.46875 C-61.06386957 122.47486329 -61.06386957 122.47486329 -62.9781456 122.48110008 C-68.9015885 122.49970474 -74.82501886 122.51431087 -80.74848378 122.52271205 C-87.56008899 122.53253883 -94.37137401 122.55904515 -101.18286622 122.59921294 C-107.11169999 122.63296911 -113.04045459 122.64485159 -118.96938705 122.64891624 C-121.4836637 122.65379352 -123.9979366 122.66543973 -126.51214981 122.68395424 C-130.01373752 122.70817527 -133.51446833 122.70741372 -137.01611328 122.70043945 C-138.05507248 122.71324951 -139.09403168 122.72605957 -140.16447449 122.73925781 C-147.17556768 122.68816741 -147.17556768 122.68816741 -150.42330933 120.32536316 C-151.86096734 118.14511896 -152.66273007 116.84147154 -152.8046875 114.23046875 C-151.9140625 112.125 -151.9140625 112.125 -150.5546875 110.04296875 C-150.11640625 109.34816406 -149.678125 108.65335937 -149.2265625 107.9375 C-147.8046875 106.23046875 -147.8046875 106.23046875 -144.8046875 105.23046875 C-144.11513481 103.90882609 -143.45224047 102.57318889 -142.8046875 101.23046875 C-141.52285269 99.76704067 -140.1853854 98.35101446 -138.8046875 96.98046875 C-138.1034375 96.2740625 -137.4021875 95.56765625 -136.6796875 94.83984375 C-134.8046875 93.23046875 -134.8046875 93.23046875 -132.8046875 93.23046875 C-132.8046875 92.57046875 -132.8046875 91.91046875 -132.8046875 91.23046875 C-132.1446875 91.23046875 -131.4846875 91.23046875 -130.8046875 91.23046875 C-130.4746875 90.57046875 -130.1446875 89.91046875 -129.8046875 89.23046875 C-127.09760631 85.48220249 -124.06969176 82.63893709 -120.53515625 79.71484375 C-118.58612774 78.09279648 -118.58612774 78.09279648 -116.1796875 75.48046875 C-113.75316823 73.18166102 -111.86547 72.42077306 -108.8046875 71.23046875 C-108.4746875 70.24046875 -108.1446875 69.25046875 -107.8046875 68.23046875 C-106.8146875 68.23046875 -105.8246875 68.23046875 -104.8046875 68.23046875 C-104.8046875 67.57046875 -104.8046875 66.91046875 -104.8046875 66.23046875 C-94.27516491 59.94522509 -83.52846112 60.08159474 -71.62890625 60.2890625 C-59.37228083 60.49847218 -51.19680791 58.49160084 -41.8046875 50.23046875 C-38.76785879 46.50566283 -36.81627323 42.93382098 -35.8046875 38.23046875 C-35.1446875 38.23046875 -34.4846875 38.23046875 -33.8046875 38.23046875 C-34.1346875 37.24046875 -34.4646875 36.25046875 -34.8046875 35.23046875 C-33.984375 32.734375 -33.984375 32.734375 -32.6796875 29.79296875 C-31.98552734 28.20742188 -31.98552734 28.20742188 -31.27734375 26.58984375 C-30.79136719 25.48125 -30.30539062 24.37265625 -29.8046875 23.23046875 C-28.50285033 19.99984732 -27.20647672 16.76720975 -25.91796875 13.53125 C-24.8046875 11.23046875 -24.8046875 11.23046875 -22.8046875 10.23046875 C-22.4025 9.27140625 -22.4025 9.27140625 -21.9921875 8.29296875 C-20.4097273 5.54448524 -18.71945026 5.27679384 -15.8046875 4.23046875 C-15.4746875 3.57046875 -15.1446875 2.91046875 -14.8046875 2.23046875 C-9.82884179 0.03074842 -5.32620867 -0.04617724 0 0 Z " fill="#0000FE" transform="translate(957.8046875,297.76953125)"/>
<path d="M0 0 C0.90218262 0.0299707 1.80436523 0.05994141 2.73388672 0.09082031 C5.78132861 0.19764301 8.82815104 0.31495191 11.875 0.4375 C12.86169678 0.47657471 13.84839355 0.51564941 14.86499023 0.5559082 C18.83046774 0.73188994 22.69395813 0.95547882 26.625 1.52734375 C30.81565037 2.11422881 34.90000515 2.14601987 39.125 2.125 C39.91003906 2.12886719 40.69507813 2.13273438 41.50390625 2.13671875 C46.36205506 2.12852626 50.66846611 1.61356155 55.375 0.375 C59.78985059 -0.25569294 63.80551728 0.60183909 68 2 C69.99673484 2.35236497 71.99650739 2.68834559 74 3 C74 2.34 74 1.68 74 1 C78.68973124 0.07670916 83.23596815 -0.15186484 88 -0.125 C88.68578125 -0.12886719 89.3715625 -0.13273438 90.078125 -0.13671875 C94.16741401 -0.12891476 97.98527077 0.2601583 102 1 C104.03894549 1.23346704 106.0809047 1.44202472 108.125 1.625 C109.64480469 1.76808594 109.64480469 1.76808594 111.1953125 1.9140625 C113.80271587 1.99395508 115.51667995 1.65963189 118 1 C123.1577798 0.75575973 128.27648109 0.71274685 133.375 1.5625 C136.0454816 2.181604 136.0454816 2.181604 138.82421875 1.33203125 C142.8419841 0.91196968 144.15912464 1.85059736 147.4375 4.125 C148.39011719 4.7746875 149.34273437 5.424375 150.32421875 6.09375 C151.20722656 6.7228125 152.09023438 7.351875 153 8 C153.99966797 8.69609375 153.99966797 8.69609375 155.01953125 9.40625 C156.14989221 10.20235072 157.27274008 11.00925763 158.38671875 11.828125 C159.49660978 12.63434124 160.62579716 13.4144352 161.76953125 14.171875 C165.77100252 16.85695812 168.5709334 19.76045741 171.58984375 23.50390625 C173.45056168 25.47801973 175.49365086 26.05165168 178 27 C183.83200239 34.70657459 183.1701173 46.29089411 183.125 55.5625 C183.12886719 56.36107422 183.13273438 57.15964844 183.13671875 57.98242188 C183.12841018 63.07973044 182.67336364 67.94977269 182 73 C182.04125 74.175625 182.0825 75.35125 182.125 76.5625 C181.86362018 83.75044493 178.30480265 88.30500417 173.5 93.25 C173.01402344 93.765625 172.52804687 94.28125 172.02734375 94.8125 C170.69654693 96.21944596 169.34893482 97.61043461 168 99 C167.4534375 99.59296875 166.906875 100.1859375 166.34375 100.796875 C165 102 165 102 162 103 C161.34 103.99 160.68 104.98 160 106 C159.01 106 158.02 106 157 106 C156.67 106.99 156.34 107.98 156 109 C154.3984375 110.4296875 154.3984375 110.4296875 152.375 111.875 C151.65570313 112.39191406 150.93640625 112.90882813 150.1953125 113.44140625 C149.47085938 113.95574219 148.74640625 114.47007812 148 115 C147.35804688 115.48339844 146.71609375 115.96679688 146.0546875 116.46484375 C143.06188418 118.69972934 140.65650773 120.26074952 137 121 C137 121.66 137 122.32 137 123 C134.525 123.495 134.525 123.495 132 124 C132 124.66 132 125.32 132 126 C125.70863126 128.76794646 120.6367661 129.42160962 113.8046875 129.328125 C112.85361115 129.32625183 111.90253479 129.32437866 110.92263794 129.32244873 C108.92413799 129.31576197 106.92565038 129.30191535 104.92724609 129.28125 C101.87715403 129.25002205 98.82758012 129.24026443 95.77734375 129.234375 C93.82811873 129.22520613 91.87889893 129.21483073 89.9296875 129.203125 C88.57011429 129.19675018 88.57011429 129.19675018 87.18307495 129.19024658 C83.72530897 129.15137559 80.45055584 129.07668878 77.03662109 128.49560547 C72.52385722 127.75907945 68.04911926 127.8576195 63.484375 127.8671875 C62.47336731 127.86623077 61.46235962 127.86527405 60.42071533 127.86428833 C58.28584735 127.86360942 56.15097727 127.86544353 54.01611328 127.86962891 C50.77501697 127.87495886 47.53406065 127.8696856 44.29296875 127.86328125 C42.2109372 127.86394252 40.12890573 127.86522468 38.046875 127.8671875 C37.08924255 127.86516327 36.13161011 127.86313904 35.1449585 127.86105347 C29.860003 127.87914432 24.70884125 128.18527086 19.45724487 128.76425171 C12.53012167 129.42884052 5.52897252 129.30616994 -1.42407227 129.35009766 C-3.35876391 129.36677744 -5.29339104 129.39422188 -7.2277832 129.43212891 C-10.04410107 129.48682393 -12.85900452 129.50874163 -15.67578125 129.5234375 C-16.96806389 129.55744156 -16.96806389 129.55744156 -18.28645325 129.59213257 C-22.6569397 129.57672081 -24.46099482 129.40561957 -28.05932617 126.69775391 C-30.6676932 123.0718317 -30.44079265 120.24630252 -30 116 C-29.91492188 114.69675781 -29.91492188 114.69675781 -29.828125 113.3671875 C-29.30427632 106.45641447 -29.30427632 106.45641447 -27 103 C-27.27630065 98.92456535 -27.86011621 95.47512078 -29.01586914 91.54956055 C-30.32848888 86.30156495 -30.26893919 81.16420031 -30.23046875 75.78125 C-30.23001053 74.72393677 -30.22955231 73.66662354 -30.2290802 72.57727051 C-30.22607219 70.35179516 -30.21822967 68.12632164 -30.20581055 65.90087891 C-30.18755742 62.51066555 -30.18530117 59.12072615 -30.18554688 55.73046875 C-30.1806305 53.55989349 -30.17480166 51.38932007 -30.16796875 49.21875 C-30.16685593 48.21332153 -30.1657431 47.20789307 -30.16459656 46.17199707 C-30.11260587 38.39284451 -29.66223613 30.67328417 -27.4609375 23.16015625 C-26.94431495 20.73903534 -27.00832341 18.65715446 -27.125 16.1875 C-27.1612083 11.28489628 -26.54613824 8.21429777 -24 4 C-21.6875 2.6875 -21.6875 2.6875 -19 2 C-18.06671875 1.6596875 -17.1334375 1.319375 -16.171875 0.96875 C-10.83985894 -0.65974752 -5.52079572 -0.18551223 0 0 Z M16 35 C14.6950134 37.60997319 14.90337191 39.49883197 14.9375 42.41796875 C14.94523437 43.50787109 14.95296875 44.59777344 14.9609375 45.72070312 C14.98675912 48.01237228 15.01279701 50.30403901 15.0390625 52.59570312 C15.07860143 58.20034594 14.90969506 63.47416637 14 69 C14.31856451 71.00240549 14.65421232 73.00211562 15 75 C14.95048222 76.81290112 14.88666345 78.62543977 14.8125 80.4375 C14.76061167 85.8783622 15.6932651 88.68287388 19 93 C21.01735205 94.34410262 21.01735205 94.34410262 23 95 C23.66 95.66 24.32 96.32 25 97 C28.55872154 97.11899591 32.05946312 97.04251185 35.61523438 96.921875 C41.51196156 96.79891978 41.51196156 96.79891978 44.73046875 98.125 C47.82700565 99.31884555 48.97410047 98.21102218 52 97 C54.48852539 96.74121094 54.48852539 96.74121094 57.09765625 96.734375 C58.05841064 96.73058838 59.01916504 96.72680176 60.0090332 96.72290039 C61.01667725 96.73184326 62.02432129 96.74078613 63.0625 96.75 C64.61360474 96.75471313 64.61360474 96.75471313 66.19604492 96.75952148 C72.45426912 96.82702615 78.33964949 97.33941382 84.4765625 98.6171875 C88.68488403 99.2556016 92.84239512 98.86289913 97 98 C97.33 97.67 97.66 97.34 98 97 C104.13166255 96.55083222 109.19926814 96.92831005 115 99 C117.63686628 98.74886988 119.51373829 98.24313085 121.875 97.0625 C124 96 124 96 127.6875 95 C129.3271875 94.505 129.3271875 94.505 131 94 C132.76765432 90.46469136 131.99244785 86.10912817 131.87304688 82.20507812 C131.79682385 77.40302725 132.47595314 73.56018726 134 69 C133.34 68.34 132.68 67.68 132 67 C131.76953125 65.125 131.76953125 65.125 131.8125 63 C131.81894531 62.29875 131.82539063 61.5975 131.83203125 60.875 C132 59 132 59 133 57 C132.690625 56.13375 132.38125 55.2675 132.0625 54.375 C131.06363366 51.20213045 131.02282018 50.11589607 131.375 47 C131.47187205 44.1907105 131.30218036 43.32820546 129.3671875 41.2265625 C127.30070447 39.66335578 125.24780117 38.28797366 123 37 C122.15501953 36.42958984 122.15501953 36.42958984 121.29296875 35.84765625 C117.61600844 34.48837109 113.94658286 34.75322484 110.0625 34.8125 C109.26392578 34.81314453 108.46535156 34.81378906 107.64257812 34.81445312 C103.61550686 34.844481 99.94179651 35.11082033 96 36 C93.30213351 36.16263734 90.70967054 36.09032235 88 36 C87.505 35.505 87.505 35.505 87 35 C84.23813694 34.87257499 81.51236551 34.81478295 78.75 34.8125 C77.98558594 34.80025391 77.22117187 34.78800781 76.43359375 34.77539062 C72.11844933 34.76421149 68.96173777 35.11852956 65 37 C57.50234878 38.55123818 51.08378419 37.17505626 43.70898438 35.47045898 C40.76501578 34.95919119 38.03022574 34.88702448 35.04296875 34.90234375 C33.93115234 34.90556641 32.81933594 34.90878906 31.67382812 34.91210938 C29.9480957 34.92467773 29.9480957 34.92467773 28.1875 34.9375 C27.01767578 34.94201172 25.84785156 34.94652344 24.64257812 34.95117188 C21.76166642 34.9629307 18.88085956 34.97936574 16 35 Z " fill="#0000FE" transform="translate(287,562)"/>
<path d="M0 0 C1.04514519 -0.00284752 1.04514519 -0.00284752 2.11140442 -0.00575256 C4.41894763 -0.00945946 6.72617597 0.00126183 9.03369141 0.01245117 C10.65678877 0.01364558 12.27988684 0.01409558 13.90298462 0.01383972 C17.31769097 0.01540565 20.73229268 0.02368916 24.14697266 0.03710938 C28.45683034 0.05385896 32.7665718 0.05782657 37.07645798 0.05731392 C66.76687411 0.05800634 66.76687411 0.05800634 80.98681641 0.62963867 C81.82924896 0.6597554 82.67168152 0.68987213 83.53964233 0.72090149 C95.75916487 1.32101372 105.28562146 7.14533727 115.13525391 14.04370117 C117.10233946 15.4095901 117.10233946 15.4095901 120.01025391 16.24291992 C120.01025391 16.90291992 120.01025391 17.56291992 120.01025391 18.24291992 C120.89712891 18.51104492 121.78400391 18.77916992 122.69775391 19.05541992 C130.27462172 21.77165555 130.27462172 21.77165555 132.01025391 25.24291992 C133.65388524 25.96451417 135.32075777 26.63643413 137.01025391 27.24291992 C137.01025391 27.90291992 137.01025391 28.56291992 137.01025391 29.24291992 C137.59548828 29.36022461 138.18072266 29.4775293 138.78369141 29.59838867 C143.087079 30.84410613 146.89246317 33.63913322 149.44775391 37.30541992 C150.01025391 39.24291992 150.01025391 39.24291992 150.01025391 43.24291992 C151.00025391 43.57291992 151.99025391 43.90291992 153.01025391 44.24291992 C153.39158689 46.23432552 153.72350973 48.23571069 154.01025391 50.24291992 C153.68025391 50.57291992 153.35025391 50.90291992 153.01025391 51.24291992 C152.94640284 53.69384788 152.94398477 56.1172389 152.98291016 58.56713867 C152.99556704 60.08601651 153.0079272 61.60489685 153.02001953 63.1237793 C153.04475071 65.52221415 153.07261527 67.92051984 153.10620117 70.31884766 C153.1365805 72.63078596 153.15424136 74.9425632 153.17041016 77.25463867 C153.19059959 78.31904427 153.19059959 78.31904427 153.2111969 79.404953 C153.23297376 83.76853664 152.50993288 87.16733039 151.01025391 91.24291992 C150.84226922 94.49336701 150.84226922 94.49336701 151.01025391 97.24291992 C150.35025391 97.24291992 149.69025391 97.24291992 149.01025391 97.24291992 C149.34025391 98.23291992 149.67025391 99.22291992 150.01025391 100.24291992 C149.35025391 100.24291992 148.69025391 100.24291992 148.01025391 100.24291992 C147.82462891 100.92354492 147.63900391 101.60416992 147.44775391 102.30541992 C141.52679543 114.40476985 124.95227691 121.63371806 113.01025391 126.24291992 C110.68207427 126.61052723 108.34841541 126.94533573 106.01025391 127.24291992 C104.60024109 127.74159073 104.60024109 127.74159073 103.16174316 128.25033569 C99.97730164 129.25329848 97.47383992 129.51707642 94.14892578 129.56176758 C93.00944489 129.5816272 91.86996399 129.60148682 90.69595337 129.62194824 C89.46936005 129.63350952 88.24276672 129.6450708 86.97900391 129.65698242 C85.69077728 129.67643921 84.40255066 129.695896 83.07528687 129.71594238 C79.60365927 129.76779905 76.13199581 129.80748347 72.66017914 129.84421539 C69.79042788 129.87585654 66.92077871 129.91405497 64.05110741 129.95217705 C47.66344012 130.16892072 31.27437437 130.33481146 14.88525391 130.36791992 C14.14299561 130.37059875 13.4007373 130.37327759 12.63598633 130.3760376 C-10.81653877 130.44144041 -10.81653877 130.44144041 -19.98974609 127.24291992 C-20.64974609 127.24291992 -21.30974609 127.24291992 -21.98974609 127.24291992 C-21.98974609 126.58291992 -21.98974609 125.92291992 -21.98974609 125.24291992 C-22.56982422 125.21713867 -23.14990234 125.19135742 -23.74755859 125.16479492 C-29.3110052 124.7608483 -32.44835843 123.6741906 -36.98974609 120.24291992 C-38.97482557 119.21361945 -40.9708886 118.20428063 -42.98974609 117.24291992 C-42.98974609 116.58291992 -42.98974609 115.92291992 -42.98974609 115.24291992 C-43.79412109 114.97479492 -44.59849609 114.70666992 -45.42724609 114.43041992 C-46.27287109 114.03854492 -47.11849609 113.64666992 -47.98974609 113.24291992 C-48.31974609 112.25291992 -48.64974609 111.26291992 -48.98974609 110.24291992 C-49.64974609 110.24291992 -50.30974609 110.24291992 -50.98974609 110.24291992 C-50.98974609 109.58291992 -50.98974609 108.92291992 -50.98974609 108.24291992 C-51.60849609 108.03666992 -52.22724609 107.83041992 -52.86474609 107.61791992 C-55.9200631 105.64095009 -56.08595108 103.7289864 -56.98974609 100.24291992 C-57.33231445 99.07712402 -57.67488281 97.91132812 -58.02783203 96.71020508 C-59.2935345 91.61078637 -59.27724553 86.62136018 -59.25537109 81.39135742 C-59.25728455 80.37369293 -59.259198 79.35602844 -59.26116943 78.30752563 C-59.26252392 76.1678238 -59.25887921 74.02811354 -59.25048828 71.88842773 C-59.23975617 68.62098725 -59.25042022 65.35409374 -59.26318359 62.08666992 C-59.2618623 60.00073121 -59.25930054 57.91479285 -59.25537109 55.82885742 C-59.26144379 54.3708522 -59.26144379 54.3708522 -59.26763916 52.88339233 C-59.23317706 47.88324953 -58.79451285 43.96647944 -56.98974609 39.24291992 C-56.94196601 35.82664418 -57.03490303 32.48331355 -57.24365234 29.0769043 C-57.36371154 25.35860039 -57.10883026 23.43241692 -55.10693359 20.24682617 C-52.98974609 18.24291992 -52.98974609 18.24291992 -50.98974609 18.24291992 C-50.98974609 17.58291992 -50.98974609 16.92291992 -50.98974609 16.24291992 C-50.32974609 16.24291992 -49.66974609 16.24291992 -48.98974609 16.24291992 C-48.73580078 15.62932617 -48.48185547 15.01573242 -48.22021484 14.38354492 C-46.15166095 10.78491782 -42.81067908 9.57011785 -38.98974609 8.24291992 C-35.61474609 8.11791992 -35.61474609 8.11791992 -31.98974609 8.24291992 C-26.95467337 7.52473901 -22.51515838 6.58396823 -17.98974609 4.24291992 C-15.65641276 3.57625326 -13.32307943 2.90958659 -10.98974609 2.24291992 C-10.40172211 1.89730515 -9.81369812 1.55169037 -9.20785522 1.19560242 C-6.08240034 -0.14678697 -3.39555332 -0.00384903 0 0 Z M24.01025391 35.24291992 C22.01063826 35.28212807 20.00976026 35.2873534 18.01025391 35.24291992 C17.68025391 35.57291992 17.35025391 35.90291992 17.01025391 36.24291992 C15.17383496 36.17733353 13.33987474 36.03886934 11.51025391 35.86791992 C10.42744141 35.7725293 9.34462891 35.67713867 8.22900391 35.57885742 C5.47078102 35.29098464 2.7516048 34.90412256 0.01025391 34.49291992 C-2.77014337 34.18287562 -3.68647289 34.09128332 -6.23974609 35.36791992 C-7.10599609 36.29604492 -7.10599609 36.29604492 -7.98974609 37.24291992 C-8.87662109 37.84104492 -9.76349609 38.43916992 -10.67724609 39.05541992 C-14.43874721 44.24019173 -13.78707858 50.00215827 -13.98974609 56.24291992 C-14.15683914 57.76613041 -14.3410598 59.28769444 -14.55224609 60.80541992 C-15.5142807 69.10684754 -15.81057001 77.30935265 -12.98974609 85.24291992 C-12.98974609 85.90291992 -12.98974609 86.56291992 -12.98974609 87.24291992 C-12.32974609 87.24291992 -11.66974609 87.24291992 -10.98974609 87.24291992 C-10.72162109 88.00604492 -10.45349609 88.76916992 -10.17724609 89.55541992 C-9.03179363 92.14775971 -8.22559429 93.5436753 -5.98974609 95.24291992 C-4.99974609 95.24291992 -4.00974609 95.24291992 -2.98974609 95.24291992 C-2.98974609 95.90291992 -2.98974609 96.56291992 -2.98974609 97.24291992 C-0.55073649 96.76459825 1.87894877 96.27361754 4.29931641 95.70776367 C11.17406661 94.15577157 18.37291394 93.22363882 25.33837891 94.75463867 C29.5515418 95.52458803 33.77489471 95.28349619 38.03955078 95.20385742 C41.04333106 95.1696912 43.87789478 95.21974908 46.84130859 95.73852539 C50.15560204 96.26605469 53.2689175 96.37237276 56.62353516 96.37573242 C57.87199219 96.37702148 59.12044922 96.37831055 60.40673828 96.37963867 C61.69902344 96.37577148 62.99130859 96.3719043 64.32275391 96.36791992 C65.6034375 96.37178711 66.88412109 96.3756543 68.20361328 96.37963867 C74.21235717 96.37345366 80.09479102 96.26412695 86.05444336 95.47924805 C90.36196979 94.95875303 94.73455038 94.95273157 99.06884766 94.81713867 C102.07392834 94.59015577 102.07392834 94.59015577 103.18188477 92.50488281 C104.10032899 89.99695892 104.23972696 88.14181776 104.20556641 85.47729492 C104.19912109 84.5878418 104.19267578 83.69838867 104.18603516 82.78198242 C104.16927734 81.8615918 104.15251953 80.94120117 104.13525391 79.99291992 C104.12623047 79.05706055 104.11720703 78.12120117 104.10791016 77.15698242 C104.08439027 74.85203335 104.05152243 72.54760832 104.01025391 70.24291992 C103.35025391 70.24291992 102.69025391 70.24291992 102.01025391 70.24291992 C102.01025391 64.63291992 102.01025391 59.02291992 102.01025391 53.24291992 C103.00025391 52.74791992 103.00025391 52.74791992 104.01025391 52.24291992 C104.01025391 47.29291992 104.01025391 42.34291992 104.01025391 37.24291992 C102.66962891 36.76854492 101.32900391 36.29416992 99.94775391 35.80541992 C98.81660156 35.40516602 98.81660156 35.40516602 97.66259766 34.99682617 C89.99864253 32.81841183 82.24971341 33.08191424 74.34228516 33.07495117 C72.3737281 33.06995857 72.3737281 33.06995857 70.36540222 33.06486511 C67.59930598 33.05890436 64.83324087 33.05702231 62.06713867 33.05761719 C58.52640379 33.05771922 54.98586759 33.04401159 51.44517994 33.02684498 C48.05671185 33.01305473 44.66828096 33.01363688 41.27978516 33.01245117 C39.3750518 33.0016729 39.3750518 33.0016729 37.43183899 32.99067688 C36.25348984 32.99375351 35.07514069 32.99683014 33.86108398 33 C32.82518631 32.99857498 31.78928864 32.99714996 30.72200012 32.99568176 C27.94934295 33.24847336 26.42471311 33.94094083 24.01025391 35.24291992 Z " fill="#0000FE" transform="translate(540.98974609375,561.757080078125)"/>
<path d="M0 0 C3.90126182 0.72681042 7.53847133 0.33588549 11.4765625 0.03125 C28.56197842 -1.11354204 28.56197842 -1.11354204 33.8515625 1.53125 C38.35038336 10.88584469 36.97960167 22.62067612 36.9140625 32.71875 C36.90903213 34.06575352 36.90447197 35.41275889 36.90039062 36.75976562 C36.88871604 40.01697537 36.87234133 43.27408778 36.8515625 46.53125 C44.03723271 48.7394857 50.92674279 48.96631931 58.4140625 49.03125 C59.60708984 49.0725 60.80011719 49.11375 62.02929688 49.15625 C69.60395608 49.26792361 69.60395608 49.26792361 76.06640625 45.75 C78.25122526 43.56204539 79.56428341 41.33487765 80.8515625 38.53125 C81.8415625 38.53125 82.8315625 38.53125 83.8515625 38.53125 C83.8515625 37.87125 83.8515625 37.21125 83.8515625 36.53125 C84.38265625 36.30050781 84.91375 36.06976562 85.4609375 35.83203125 C90.1345801 33.67430939 92.78114976 31.76630206 95.8515625 27.53125 C100.10688165 23.70146277 100.10688165 23.70146277 103.0390625 23.03125 C103.6371875 22.86625 104.2353125 22.70125 104.8515625 22.53125 C105.53642975 21.20717331 106.20026453 19.87215759 106.8515625 18.53125 C108.50945035 17.18701661 110.17732567 15.85506517 111.8515625 14.53125 C112.76943131 13.46652218 113.66531904 12.38247697 114.5390625 11.28125 C115.68375 9.92 115.68375 9.92 116.8515625 8.53125 C117.5115625 8.53125 118.1715625 8.53125 118.8515625 8.53125 C119.2846875 7.5721875 119.2846875 7.5721875 119.7265625 6.59375 C120.8515625 4.53125 120.8515625 4.53125 122.8515625 3.53125 C123.8415625 4.02625 123.8415625 4.02625 124.8515625 4.53125 C124.8515625 3.87125 124.8515625 3.21125 124.8515625 2.53125 C126.77213542 2.30338542 128.69270833 2.07552083 130.61328125 1.84765625 C132.15299014 1.63000107 133.68539667 1.35563318 135.20703125 1.03515625 C146.6064733 -1.13696786 158.09613105 -0.35033183 169.58105469 0.42919922 C172.69602713 0.56920551 175.79584518 0.47836205 178.91064453 0.35571289 C180.8515625 0.53125 180.8515625 0.53125 183.8515625 2.53125 C183.60231223 6.26470087 183.38327218 8.02290191 180.62890625 10.65625 C179.69175781 11.275 178.75460937 11.89375 177.7890625 12.53125 C176.29826172 13.54638672 176.29826172 13.54638672 174.77734375 14.58203125 C173.81183594 15.22527344 172.84632813 15.86851562 171.8515625 16.53125 C167.12405149 19.9125686 162.9183412 23.36019493 158.8515625 27.53125 C157.63512087 28.64942015 156.40531362 29.75318575 155.1640625 30.84375 C154.29201172 31.61138672 154.29201172 31.61138672 153.40234375 32.39453125 C151.8515625 33.53125 151.8515625 33.53125 149.8515625 33.53125 C149.5215625 34.19125 149.1915625 34.85125 148.8515625 35.53125 C145.97409411 37.62395428 143.40035779 39.33612279 140.0390625 40.53125 C139.3171875 40.86125 138.5953125 41.19125 137.8515625 41.53125 C137.10880219 43.50205157 137.10880219 43.50205157 136.8515625 45.53125 C135.8615625 46.52125 135.8615625 46.52125 134.8515625 47.53125 C133.8615625 47.53125 132.8715625 47.53125 131.8515625 47.53125 C131.8515625 48.52125 131.8515625 49.51125 131.8515625 50.53125 C129.96587575 52.14119954 128.12730837 53.55779445 126.1015625 54.96875 C122.38436869 57.62196442 118.98091668 60.19681678 115.8515625 63.53125 C116.4909375 63.799375 117.1303125 64.0675 117.7890625 64.34375 C119.8515625 65.53125 119.8515625 65.53125 120.8515625 68.53125 C122.18083788 68.8804145 123.51534983 69.20965305 124.8515625 69.53125 C126.84434524 70.76910669 128.79986266 72.06785546 130.7265625 73.40625 C134.65721568 76.13056461 138.52842804 78.47937424 142.8515625 80.53125 C142.8515625 81.19125 142.8515625 81.85125 142.8515625 82.53125 C144.1715625 82.86125 145.4915625 83.19125 146.8515625 83.53125 C146.8515625 84.19125 146.8515625 84.85125 146.8515625 85.53125 C147.43421875 85.63566406 148.016875 85.74007812 148.6171875 85.84765625 C151.18801673 86.63418617 152.5855683 87.70690891 154.6015625 89.46875 C155.52195312 90.25572266 155.52195312 90.25572266 156.4609375 91.05859375 C157.8515625 92.53125 157.8515625 92.53125 157.8515625 94.53125 C158.4703125 94.61375 159.0890625 94.69625 159.7265625 94.78125 C162.52661669 95.76950442 162.59270182 96.93484985 163.8515625 99.53125 C165.70127946 100.58146103 165.70127946 100.58146103 167.8515625 101.53125 C170.6015625 103.53125 170.6015625 103.53125 172.8515625 105.53125 C172.8515625 106.19125 172.8515625 106.85125 172.8515625 107.53125 C174.1715625 107.86125 175.4915625 108.19125 176.8515625 108.53125 C176.8515625 109.19125 176.8515625 109.85125 176.8515625 110.53125 C177.8415625 110.86125 178.8315625 111.19125 179.8515625 111.53125 C182.25912049 113.51394481 183.63922381 114.99332532 184.7890625 117.90625 C184.8737313 121.46233969 183.69103915 123.53358435 181.8515625 126.53125 C179.45511496 127.72947377 177.8670434 127.70067029 175.18994141 127.76831055 C174.22198639 127.79471115 173.25403137 127.82111176 172.25674438 127.84831238 C171.20779999 127.87129898 170.15885559 127.89428558 169.078125 127.91796875 C167.46519058 127.95625542 167.46519058 127.95625542 165.81967163 127.99531555 C163.54162236 128.04738554 161.26351121 128.09680497 158.98535156 128.14379883 C155.49769125 128.21829867 152.01068999 128.30897099 148.5234375 128.40039062 C146.31252164 128.44891296 144.10158436 128.49647087 141.890625 128.54296875 C140.3232811 128.58655769 140.3232811 128.58655769 138.72427368 128.63102722 C137.75001434 128.64797134 136.775755 128.66491547 135.77197266 128.68237305 C134.91640778 128.70156296 134.0608429 128.72075287 133.17935181 128.74052429 C129.31789824 128.39336961 127.33802633 127.03161279 124.6640625 124.28125 C122.27730179 121.94752842 120.26944263 120.45896563 117.4765625 118.71875 C113.4192106 116.10565416 110.59344799 113.20082575 107.55078125 109.484375 C105.37645303 106.98514716 102.9408073 104.98283634 100.33203125 102.953125 C98.62324057 101.31196456 97.88598457 99.64374064 96.8515625 97.53125 C96.1915625 97.20125 95.5315625 96.87125 94.8515625 96.53125 C94.8515625 95.87125 94.8515625 95.21125 94.8515625 94.53125 C94.26375 94.42039062 93.6759375 94.30953125 93.0703125 94.1953125 C90.61919266 93.46170269 89.32073834 92.52131966 87.3515625 90.90625 C82.94744796 87.4512263 78.20153368 84.8169039 73.29296875 82.14453125 C70.8515625 80.53125 70.8515625 80.53125 69.8515625 77.53125 C66.78878983 77.67251626 63.72642708 77.81909396 60.6640625 77.96875 C59.79974609 78.00806641 58.93542969 78.04738281 58.04492188 78.08789062 C53.87254426 78.2957102 49.94196692 78.64203165 45.8515625 79.53125 C44.41527793 79.59391512 42.976507 79.61811347 41.5390625 79.59375 C39.71375 79.5628125 39.71375 79.5628125 37.8515625 79.53125 C36.25232388 82.72972724 37.06765973 86.11745113 37.3515625 89.59375 C37.56683624 92.24344911 37.73384908 94.87386945 37.8515625 97.53125 C37.5215625 97.86125 37.1915625 98.19125 36.8515625 98.53125 C36.56251567 103.44504606 36.60595532 108.25855827 37.5390625 113.09375 C37.98134873 117.95889855 37.11464311 122.18226946 34.8515625 126.53125 C31.7265625 128.09375 31.7265625 128.09375 28.8515625 128.53125 C28.5215625 128.86125 28.1915625 129.19125 27.8515625 129.53125 C25.36572214 129.65693214 22.90914578 129.71987757 20.421875 129.734375 C19.67573944 129.74007507 18.92960388 129.74577515 18.16085815 129.75164795 C16.57877018 129.76111151 14.99666238 129.7676373 13.41455078 129.77148438 C10.99346468 129.7811823 8.5732301 129.81218823 6.15234375 129.84375 C4.61719256 129.8502806 3.08203527 129.85553085 1.546875 129.859375 C0.82178741 129.8717218 0.09669983 129.8840686 -0.65036011 129.89678955 C-5.66009775 129.87458994 -5.66009775 129.87458994 -8.09301758 128.1640625 C-10.45874171 124.5041127 -10.16640418 119.76539723 -10.1484375 115.53125 C-9.54982008 113.17953869 -8.87919398 110.8453122 -8.1484375 108.53125 C-7.81168477 105.39092939 -7.58832796 102.2576315 -7.39453125 99.10546875 C-7.1484375 96.53125 -7.1484375 96.53125 -6.1484375 94.53125 C-5.83977182 87.27760649 -6.61786547 80.0094444 -7.7109375 72.84375 C-8.12401282 69.71617975 -8.10447213 66.75754907 -8.05151367 63.61083984 C-8.15422212 61.40713558 -8.57994671 59.5150996 -9.13671875 57.3828125 C-10.27273838 52.47331519 -10.4465033 47.8041265 -10.3984375 42.78125 C-10.40617188 41.95753906 -10.41390625 41.13382813 -10.421875 40.28515625 C-10.4075887 35.84925985 -10.02875884 32.61507292 -8.1484375 28.53125 C-7.67419885 24.84892636 -7.73351149 21.54263214 -9.1484375 18.09375 C-10.65589413 14.23089239 -10.86619331 10.61528055 -10.1484375 6.53125 C-7.9674054 2.49634061 -4.95923834 -1.08201564 0 0 Z " fill="#0000FE" transform="translate(924.1484375,562.46875)"/>
<path d="M0 0 C16.0196436 0.84508311 31.96784337 1.1478941 47.96362305 -0.19628906 C55.76088454 -0.63235429 63.31498031 0.97800938 70.8972168 2.63964844 C71.2272168 1.97964844 71.5572168 1.31964844 71.8972168 0.63964844 C75.0010689 0.5235164 78.10436342 0.45242814 81.2097168 0.38964844 C82.09079102 0.35613281 82.97186523 0.32261719 83.87963867 0.28808594 C90.26483137 0.19097274 90.26483137 0.19097274 92.99487305 2.12792969 C94.30462953 5.77370207 94.1719855 9.2645581 94.0222168 13.07714844 C93.97848174 14.57571728 93.93930299 16.07442711 93.9050293 17.57324219 C93.88859375 18.27819824 93.8721582 18.9831543 93.85522461 19.70947266 C93.83962254 21.81069136 93.83962254 21.81069136 94.5144043 24.48730469 C94.8972168 26.63964844 94.8972168 26.63964844 92.8972168 29.63964844 C88.77791746 33.05565276 85.60670175 34.14157338 80.41625977 34.46704102 C78.05986695 34.62850348 75.73149748 34.87725674 73.38549805 35.14746094 C67.36643184 35.75626174 61.38050549 35.8234998 55.3347168 35.82714844 C54.26286133 35.83939453 53.19100586 35.85164062 52.08666992 35.86425781 C46.37146315 35.87474443 41.23314342 35.53866446 35.72167969 33.97290039 C33.67199429 33.44719773 33.67199429 33.44719773 30.8972168 34.63964844 C28.17795657 34.73575535 25.49056726 34.77898069 22.7722168 34.76464844 C22.03100586 34.76851562 21.28979492 34.77238281 20.52612305 34.77636719 C15.0238766 34.76630824 15.0238766 34.76630824 13.8972168 33.63964844 C12.41810465 33.54049217 10.93433495 33.5088505 9.4519043 33.50683594 C8.53924805 33.50554688 7.6265918 33.50425781 6.6862793 33.50292969 C5.72463867 33.50679687 4.76299805 33.51066406 3.7722168 33.51464844 C2.8337793 33.51078125 1.8953418 33.50691406 0.9284668 33.50292969 C-0.45211914 33.50486328 -0.45211914 33.50486328 -1.8605957 33.50683594 C-3.11573975 33.50852783 -3.11573975 33.50852783 -4.39624023 33.51025391 C-7.22007742 33.60062115 -7.22007742 33.60062115 -10.45458984 34.13476562 C-14.24384228 34.65916996 -17.89219778 34.79857353 -21.71606445 34.85058594 C-23.14250911 34.8786095 -24.5689413 34.90727351 -25.99536133 34.93652344 C-28.21842686 34.97801605 -30.4412473 35.0149528 -32.66455078 35.04101562 C-34.82802531 35.06850035 -36.99047968 35.1143051 -39.15356445 35.16308594 C-41.08196167 35.19281494 -41.08196167 35.19281494 -43.04931641 35.22314453 C-44.05696045 35.36059082 -45.06460449 35.49803711 -46.1027832 35.63964844 C-50.13120211 41.6822768 -50.33307793 49.0500055 -50.8840332 56.14355469 C-51.1027832 58.63964844 -51.1027832 58.63964844 -51.6652832 61.76464844 C-52.16998987 65.08129226 -52.13278066 68.24161544 -52.0402832 71.58886719 C-52.1027832 73.63964844 -52.1027832 73.63964844 -53.1027832 76.63964844 C-52.99980505 82.81833742 -51.76356403 85.77458018 -47.57543945 90.29199219 C-46.12542916 91.74245544 -46.12542916 91.74245544 -44.1027832 92.63964844 C-44.1027832 93.29964844 -44.1027832 93.95964844 -44.1027832 94.63964844 C-40.55387207 95.50523652 -38.40040226 95.72550009 -34.8527832 94.70214844 C-29.86120236 93.2878672 -23.87753238 92.2943155 -19.0402832 94.63964844 C-14.89804822 96.04977098 -11.01960484 95.92547784 -6.6730957 95.90527344 C-5.76453827 95.90718689 -4.85598083 95.90910034 -3.91989136 95.91107178 C-2.00184858 95.91242995 -0.08379649 95.90875925 1.83422852 95.90039062 C4.75517681 95.88971074 7.67550662 95.90028564 10.59643555 95.91308594 C12.46492648 95.91176379 14.33341703 95.90920026 16.2019043 95.90527344 C17.06878876 95.9093219 17.93567322 95.91337036 18.8288269 95.9175415 C23.93486719 95.87848551 28.02901143 95.1358087 32.8972168 93.63964844 C39.42353259 94.16596423 39.42353259 94.16596423 40.8972168 95.63964844 C44.04222439 95.85408077 46.34381154 95.87175097 49.2722168 94.64355469 C55.81578274 92.14103021 62.97038958 93.51903329 69.57299805 95.19042969 C75.1023483 96.25912764 80.85298675 96.08566227 86.3347168 94.88964844 C88.8972168 94.63964844 88.8972168 94.63964844 91.2097168 96.26464844 C94.81024499 101.33205849 94.22947129 107.62975095 93.8972168 113.63964844 C93.59726723 114.98088635 93.26851248 116.31638414 92.8972168 117.63964844 C92.7528418 118.48527344 92.6084668 119.33089844 92.4597168 120.20214844 C91.8972168 122.63964844 91.8972168 122.63964844 89.8972168 125.63964844 C84.23968979 128.65527787 77.67964875 128.92559812 71.40112305 129.21386719 C70.16635727 129.27408806 70.16635727 129.27408806 68.90664673 129.33552551 C59.80244815 129.74320406 50.69888493 129.82574714 41.58666992 129.82495117 C38.73952027 129.82717396 35.89273783 129.8455334 33.0456543 129.86425781 C31.20190559 129.86718694 29.35815509 129.86917495 27.5144043 129.87011719 C26.67988739 129.8773027 25.84537048 129.88448822 24.98556519 129.89189148 C18.30725851 129.86617233 12.22881238 128.7501803 5.8972168 126.63964844 C2.98991082 126.51599447 0.11702222 126.45449872 -2.7902832 126.45214844 C-3.56823242 126.43990234 -4.34618164 126.42765625 -5.14770508 126.41503906 C-9.73380435 126.40356425 -13.66516235 126.92775416 -18.07275391 128.15649414 C-21.78681808 129.04045481 -25.54963226 129.16112099 -29.3527832 129.32714844 C-30.18253662 129.36622314 -31.01229004 129.40529785 -31.8671875 129.44555664 C-40.49625222 129.79011562 -48.96509216 129.85687513 -57.1027832 126.63964844 C-59.42766607 125.94075727 -61.76489121 125.2942582 -64.1027832 124.63964844 C-64.1027832 123.97964844 -64.1027832 123.31964844 -64.1027832 122.63964844 C-65.5877832 123.13464844 -65.5877832 123.13464844 -67.1027832 123.63964844 C-69.13613529 122.35775255 -71.13359474 121.01808036 -73.1027832 119.63964844 C-74.75861545 118.94650936 -76.42389299 118.27490419 -78.1027832 117.63964844 C-79.5877832 116.64964844 -79.5877832 116.64964844 -81.1027832 115.63964844 C-81.1027832 114.97964844 -81.1027832 114.31964844 -81.1027832 113.63964844 C-81.8040332 113.43339844 -82.5052832 113.22714844 -83.2277832 113.01464844 C-87.03172639 111.19537126 -89.72959918 109.15772316 -92.1027832 105.63964844 C-92.97572974 102.65356924 -93.01956346 99.73727208 -93.1027832 96.63964844 C-93.2372803 94.49307475 -93.38381823 92.34723276 -93.5402832 90.20214844 C-93.62020508 89.09484375 -93.70012695 87.98753906 -93.7824707 86.84667969 C-94.07141784 83.95368457 -94.53907037 81.22524598 -95.1652832 78.38964844 C-96.25275995 73.42296362 -97.45734901 67.34878005 -95.1027832 62.63964844 C-95.04202797 61.10045549 -95.04254711 59.55859502 -95.07543945 58.01855469 C-95.08929687 57.08793213 -95.1031543 56.15730957 -95.11743164 55.19848633 C-95.13322266 54.20969482 -95.14901367 53.22090332 -95.1652832 52.20214844 C-95.25259871 39.28673032 -94.32979316 30.48016337 -87.1027832 19.63964844 C-86.4427832 19.63964844 -85.7827832 19.63964844 -85.1027832 19.63964844 C-85.1027832 18.97964844 -85.1027832 18.31964844 -85.1027832 17.63964844 C-84.4427832 17.63964844 -83.7827832 17.63964844 -83.1027832 17.63964844 C-82.7727832 16.64964844 -82.4427832 15.65964844 -82.1027832 14.63964844 C-79.11819191 12.68422655 -77.8386353 12.63964844 -74.1027832 12.63964844 C-73.7727832 11.97964844 -73.4427832 11.31964844 -73.1027832 10.63964844 C-69.69144804 8.242494 -68.39665331 7.63964844 -64.1027832 7.63964844 C-63.9171582 6.68058594 -63.9171582 6.68058594 -63.7277832 5.70214844 C-63.5215332 5.02152344 -63.3152832 4.34089844 -63.1027832 3.63964844 C-60.10489117 2.14070242 -57.18542675 2.3226171 -53.8527832 2.13964844 C-50.18790741 1.93684899 -46.62436921 1.72844303 -43.00512695 1.11230469 C-39.9213348 0.61009897 -37.0370938 0.54153843 -33.9152832 0.57714844 C-32.37807617 0.59068359 -32.37807617 0.59068359 -30.80981445 0.60449219 C-29.91649414 0.61609375 -29.02317383 0.62769531 -28.1027832 0.63964844 C-25.08908329 0.72184793 -25.08908329 0.72184793 -22.1027832 0.13964844 C-14.76689949 -0.91696033 -7.37213703 -0.38946603 0 0 Z " fill="#0000FE" transform="translate(803.102783203125,562.3603515625)"/>
<path d="M0 0 C0.33 0 0.66 0 1 0 C1 2.64 1 5.28 1 8 C0.67 8 0.34 8 0 8 C0 5.36 0 2.72 0 0 Z " fill="#0000FF" transform="translate(303,605)"/>
<path d="M0 0 C1.65 0 3.3 0 5 0 C5 0.33 5 0.66 5 1 C3.35 1 1.7 1 0 1 C0 0.67 0 0.34 0 0 Z " fill="#0000FF" transform="translate(844,657)"/>
<path d="M0 0 C4 1 4 1 4 1 Z " fill="#0000FF" transform="translate(876,657)"/>
<path d="M0 0 C3 1 3 1 3 1 Z " fill="#0000FF" transform="translate(403,659)"/>
<path d="M0 0 C3 1 3 1 3 1 Z " fill="#0000FF" transform="translate(882,657)"/>
<path d="M0 0 C3 1 3 1 3 1 Z " fill="#0000FF" transform="translate(821,657)"/>
<path d="M0 0 C3 1 3 1 3 1 Z " fill="#0000FF" transform="translate(807,657)"/>
<path d="M0 0 C3 1 3 1 3 1 Z " fill="#0000FF" transform="translate(342,657)"/>
<path d="M0 0 C3 1 3 1 3 1 Z " fill="#0000FF" transform="translate(799,596)"/>
<path d="M0 0 C3 1 3 1 3 1 Z " fill="#0000FF" transform="translate(583,596)"/>
<path d="M0 0 C2 1 2 1 2 1 Z " fill="#0000FF" transform="translate(792,689)"/>
<path d="" fill="#0000FF" transform="translate(0,0)"/>
<path d="" fill="#0000FF" transform="translate(0,0)"/>
<path d="M0 0 C2 1 2 1 2 1 Z " fill="#0000FF" transform="translate(827,657)"/>
<path d="M0 0 C2 1 2 1 2 1 Z " fill="#0000FF" transform="translate(788,657)"/>
<path d="M0 0 C2 1 2 1 2 1 Z " fill="#0000FF" transform="translate(763,657)"/>
<path d="M0 0 C2 1 2 1 2 1 Z " fill="#0000FF" transform="translate(354,657)"/>
<path d="" fill="#0000FF" transform="translate(0,0)"/>
<path d="M0 0 C2 1 2 1 2 1 Z " fill="#0000FF" transform="translate(570,655)"/>
<path d="" fill="#0000FF" transform="translate(0,0)"/>
<path d="" fill="#0000FF" transform="translate(0,0)"/>
<path d="" fill="#0000FF" transform="translate(0,0)"/>
<path d="" fill="#0000FF" transform="translate(0,0)"/>
<path d="" fill="#0000FF" transform="translate(0,0)"/>
<path d="" fill="#0000FF" transform="translate(0,0)"/>
<path d="" fill="#0000FF" transform="translate(0,0)"/>
<path d="" fill="#0000FF" transform="translate(0,0)"/>
<path d="" fill="#0000FF" transform="translate(0,0)"/>
<path d="" fill="#0000FF" transform="translate(0,0)"/>
<path d="" fill="#0000FF" transform="translate(0,0)"/>
<path d="" fill="#0000FF" transform="translate(0,0)"/>
<path d="" fill="#0000FF" transform="translate(0,0)"/>
<path d="" fill="#0000FF" transform="translate(0,0)"/>
<path d="" fill="#0000FF" transform="translate(0,0)"/>
<path d="" fill="#0000FF" transform="translate(0,0)"/>
<path d="" fill="#0000FF" transform="translate(0,0)"/>
<path d="" fill="#0000FF" transform="translate(0,0)"/>
<path d="" fill="#0000FF" transform="translate(0,0)"/>
<path d="" fill="#0000FF" transform="translate(0,0)"/>
<path d="" fill="#0000FF" transform="translate(0,0)"/>
<path d="" fill="#0000FF" transform="translate(0,0)"/>
<path d="" fill="#0000FF" transform="translate(0,0)"/>
<path d="" fill="#0000FF" transform="translate(0,0)"/>
<path d="" fill="#0000FF" transform="translate(0,0)"/>
<path d="" fill="#0000FF" transform="translate(0,0)"/>
<path d="" fill="#0000FF" transform="translate(0,0)"/>
<path d="" fill="#0000FF" transform="translate(0,0)"/>
<path d="" fill="#0000FF" transform="translate(0,0)"/>
<path d="" fill="#0000FF" transform="translate(0,0)"/>
<path d="" fill="#0000FF" transform="translate(0,0)"/>
<path d="" fill="#0000FF" transform="translate(0,0)"/>
<path d="" fill="#0000FF" transform="translate(0,0)"/>
<path d="" fill="#0000FF" transform="translate(0,0)"/>
<path d="" fill="#0000FF" transform="translate(0,0)"/>
<path d="" fill="#0000FF" transform="translate(0,0)"/>
<path d="" fill="#0000FF" transform="translate(0,0)"/>
<path d="" fill="#0000FF" transform="translate(0,0)"/>
<path d="" fill="#0000FF" transform="translate(0,0)"/>
<path d="" fill="#0000FF" transform="translate(0,0)"/>
<path d="" fill="#0000FF" transform="translate(0,0)"/>
<path d="" fill="#0000FF" transform="translate(0,0)"/>
<path d="" fill="#0000FF" transform="translate(0,0)"/>
<path d="" fill="#0000FF" transform="translate(0,0)"/>
<path d="" fill="#0000FF" transform="translate(0,0)"/>
<path d="" fill="#0000FF" transform="translate(0,0)"/>
<path d="" fill="#0000FF" transform="translate(0,0)"/>
<path d="" fill="#0000FF" transform="translate(0,0)"/>
<path d="" fill="#0000FF" transform="translate(0,0)"/>
<path d="" fill="#0000FF" transform="translate(0,0)"/>
</svg>
